<svg width="13" height="12" viewBox="0 0 13 12" fill="none" xmlns="http://www.w3.org/2000/svg">
<g clip-path="url(#clip0_696_174)">
<path fill-rule="evenodd" clip-rule="evenodd" d="M6.78465 0.985046C5.51891 0.985046 5.36006 0.990068 4.86273 1.01116C4.36648 1.03225 4.02763 1.1059 3.7311 1.21335C3.42012 1.3227 3.13843 1.49407 2.90568 1.71549C2.66846 1.93289 2.48491 2.196 2.36783 2.48645C2.25273 2.76296 2.17421 3.07931 2.15126 3.54262C2.12867 4.00693 2.12329 4.15523 2.12329 5.33694C2.12329 6.51864 2.12867 6.66694 2.15126 7.13126C2.17385 7.59456 2.25273 7.91091 2.36783 8.18743C2.48724 8.47365 2.64644 8.71635 2.90568 8.95838C3.13843 9.17981 3.42012 9.35117 3.7311 9.46052C4.02763 9.56764 4.36648 9.64129 4.86273 9.66272C5.36006 9.68381 5.51891 9.68883 6.78465 9.68883C8.05038 9.68883 8.20923 9.68381 8.70656 9.66272C9.20282 9.64163 9.54166 9.56798 9.83784 9.46052C10.1489 9.35122 10.4308 9.17986 10.6636 8.95838C10.9008 8.74098 11.0844 8.47788 11.2015 8.18743C11.3162 7.91091 11.3951 7.59456 11.418 7.13126C11.4406 6.66694 11.446 6.51864 11.446 5.33694C11.446 4.15523 11.4406 4.00693 11.418 3.54262C11.3954 3.07931 11.3166 2.76296 11.2011 2.48645C11.0841 2.19603 10.9007 1.93292 10.6636 1.71549C10.4308 1.49402 10.1489 1.32265 9.83784 1.21335C9.54166 1.10623 9.20282 1.03258 8.70656 1.01116C8.20923 0.990068 8.05038 0.985046 6.78465 0.985046ZM6.78465 1.76906C8.02923 1.76906 8.1766 1.77374 8.66819 1.7945C9.1225 1.81391 9.36955 1.88488 9.53377 1.94447C9.75142 2.02347 9.90668 2.11754 10.0698 2.26986C10.233 2.42217 10.3337 2.56713 10.4184 2.77033C10.4822 2.92365 10.5582 3.15396 10.579 3.57844C10.6012 4.03706 10.6062 4.17498 10.6062 5.33694C10.6062 6.49889 10.6012 6.63648 10.579 7.09544C10.5582 7.51991 10.4822 7.75023 10.4184 7.90355C10.3437 8.09259 10.2246 8.2636 10.0698 8.40402C9.91943 8.54851 9.73626 8.6597 9.53377 8.7294C9.36955 8.78899 9.1225 8.85996 8.66819 8.87938C8.17696 8.90013 8.02923 8.90482 6.78465 8.90482C5.54007 8.90482 5.39234 8.90013 4.9011 8.87938C4.44644 8.85996 4.19975 8.78899 4.03552 8.7294C3.83304 8.6597 3.64986 8.54851 3.49947 8.40402C3.34472 8.26358 3.22563 8.09258 3.15094 7.90355C3.08712 7.75023 3.0111 7.51991 2.9903 7.09544C2.96807 6.63681 2.96305 6.49889 2.96305 5.33694C2.96305 4.17498 2.96807 4.0374 2.9903 3.57844C3.0111 3.15396 3.08712 2.92365 3.15094 2.77033C3.23556 2.56713 3.33632 2.42217 3.49947 2.26986C3.64987 2.12537 3.83304 2.01418 4.03552 1.94447C4.19975 1.88488 4.44644 1.81391 4.9011 1.7945C5.39234 1.77374 5.54007 1.76906 6.78465 1.76906Z" fill="#808080"/>
<path fill-rule="evenodd" clip-rule="evenodd" d="M6.8788 2.92683C6.23573 2.92683 5.619 3.1684 5.16428 3.59841C4.70956 4.02842 4.4541 4.61164 4.4541 5.21976C4.4541 5.82788 4.70956 6.4111 5.16428 6.84111C5.619 7.27112 6.23573 7.51269 6.8788 7.51269C7.52187 7.51269 8.1386 7.27112 8.59332 6.84111C9.04804 6.4111 9.3035 5.82788 9.3035 5.21976C9.3035 4.61164 9.04804 4.02842 8.59332 3.59841C8.1386 3.1684 7.52187 2.92683 6.8788 2.92683ZM6.8788 6.69379C6.4654 6.69379 6.06893 6.53849 5.77661 6.26205C5.48429 5.98562 5.32006 5.6107 5.32006 5.21976C5.32006 4.82882 5.48429 4.4539 5.77661 4.17747C6.06893 3.90103 6.4654 3.74573 6.8788 3.74573C7.2922 3.74573 7.68867 3.90103 7.98099 4.17747C8.27331 4.4539 8.43753 4.82882 8.43753 5.21976C8.43753 5.6107 8.27331 5.98562 7.98099 6.26205C7.68867 6.53849 7.2922 6.69379 6.8788 6.69379ZM9.89235 2.95958C9.89235 3.02841 9.87802 3.09656 9.85016 3.16015C9.82231 3.22374 9.78149 3.28151 9.73002 3.33018C9.67856 3.37885 9.61746 3.41745 9.55022 3.44379C9.48298 3.47013 9.41091 3.48368 9.33813 3.48368C9.26535 3.48368 9.19329 3.47013 9.12605 3.44379C9.0588 3.41745 8.99771 3.37885 8.94624 3.33018C8.89478 3.28151 8.85396 3.22374 8.8261 3.16015C8.79825 3.09656 8.78392 3.02841 8.78392 2.95958C8.78392 2.82059 8.84231 2.68728 8.94624 2.58899C9.05018 2.4907 9.19115 2.43549 9.33813 2.43549C9.48512 2.43549 9.62609 2.4907 9.73002 2.58899C9.83396 2.68728 9.89235 2.82059 9.89235 2.95958Z" fill="#808080"/>
</g>
<defs>
<clipPath id="clip0_696_174">
<rect width="12.4303" height="10.8797" fill="white" transform="translate(0.569336 0.258972)"/>
</clipPath>
</defs>
</svg>
