<svg width="18" height="18" viewBox="0 0 18 18" fill="none" xmlns="http://www.w3.org/2000/svg">
<g opacity="0.9">
<path d="M1.6875 7.13105C1.6875 3.42279 5.625 3.42279 9 3.42279C12.375 3.42279 16.3125 3.42279 16.3125 7.13105C16.3125 11.3691 12.375 6.6013 12.375 6.6013H5.625C5.625 6.6013 1.6875 11.3691 1.6875 7.13105ZM6.1875 8.19056C6.1875 8.19056 3.375 10.8393 3.375 15.6071H14.625C14.625 10.8393 11.8125 8.19056 11.8125 8.19056H6.1875Z" stroke="#C5A059" stroke-linecap="round" stroke-linejoin="round"/>
<path d="M9 14.0178C10.2426 14.0178 11.25 13.0691 11.25 11.8988C11.25 10.7285 10.2426 9.77979 9 9.77979C7.75736 9.77979 6.75 10.7285 6.75 11.8988C6.75 13.0691 7.75736 14.0178 9 14.0178Z" stroke="#C5A059" stroke-linecap="round" stroke-linejoin="round"/>
</g>
</svg>
