<svg width="13" height="12" viewBox="0 0 13 12" fill="none" xmlns="http://www.w3.org/2000/svg">
<g clip-path="url(#clip0_696_168)">
<path fill-rule="evenodd" clip-rule="evenodd" d="M7.80008 1.97671C8.06024 1.93519 8.35106 1.92136 8.62502 1.96478C9.11301 2.04173 9.56515 2.2533 9.92324 2.57223C10.1563 2.577 10.3858 2.53405 10.5887 2.47298C10.7848 2.41327 10.9731 2.33307 11.1499 2.23391L11.1545 2.23105C11.2281 2.18526 11.3164 2.16465 11.4044 2.1727C11.4924 2.18074 11.5748 2.21696 11.6375 2.27521C11.7002 2.33345 11.7393 2.41014 11.7484 2.49228C11.7574 2.57442 11.7358 2.65695 11.6871 2.72588C11.5813 2.87619 11.4336 3.14437 11.2685 3.44499L11.1893 3.58862C11.0947 3.76041 10.9976 3.9341 10.9071 4.08298C10.8504 4.17651 10.7896 4.27147 10.7282 4.35354V4.48429C10.7345 5.26622 10.5739 6.04148 10.2558 6.76484C9.93775 7.4882 9.46853 8.14516 8.87555 8.69739C8.28258 9.24963 7.57773 9.68606 6.80214 9.98124C6.02655 10.2764 5.19576 10.4244 4.35825 10.4166C3.14458 10.4176 1.95646 10.0912 0.936861 9.47655C0.863984 9.43254 0.80926 9.36674 0.781643 9.28992C0.754025 9.2131 0.755148 9.12981 0.784829 9.05366C0.814509 8.97751 0.870989 8.91303 0.94503 8.87074C1.01907 8.82846 1.10629 8.81089 1.19242 8.8209C1.89666 8.89949 2.61044 8.79341 3.25373 8.51455C2.93988 8.38134 2.65917 8.18857 2.4295 7.94851C2.19983 7.70846 2.02622 7.42637 1.91973 7.12023C1.89944 7.06162 1.89569 6.99912 1.90886 6.93876C1.92202 6.87841 1.95164 6.82224 1.99486 6.77571L1.99998 6.77094C1.74053 6.55513 1.5326 6.2908 1.38968 5.99509C1.24677 5.69939 1.17207 5.37893 1.17044 5.05452V5.02971C1.1704 4.95114 1.19806 4.87475 1.24914 4.81231C1.30022 4.74987 1.37189 4.70486 1.45308 4.68423C1.28001 4.36182 1.19021 4.00604 1.19088 3.64541C1.19059 3.23654 1.30514 2.83476 1.52311 2.48013C1.55407 2.42979 1.59769 2.38724 1.6502 2.35615C1.70271 2.32505 1.76253 2.30635 1.82451 2.30165C1.88649 2.29696 1.94876 2.30641 2.00595 2.32919C2.06314 2.35197 2.11354 2.3874 2.1528 2.43242C3.04683 3.46071 4.32768 4.13149 5.73365 4.30773C5.72145 3.87836 5.83747 3.45429 6.06873 3.08297C6.3 2.71166 6.63738 2.40776 7.04312 2.20528C7.24859 2.10316 7.5205 2.02156 7.80059 1.97671H7.80008ZM2.03575 5.57846C2.135 5.83925 2.30508 6.07151 2.52933 6.25252C2.75358 6.43353 3.02432 6.55708 3.31507 6.61108C3.39883 6.62666 3.47463 6.66791 3.53042 6.72829C3.58621 6.78867 3.61881 6.86471 3.62304 6.94436C3.62726 7.024 3.60288 7.10268 3.55375 7.16791C3.50463 7.23314 3.43357 7.28119 3.35187 7.30442C3.21285 7.34403 3.07025 7.37123 2.9256 7.38698C3.08264 7.5761 3.28305 7.72998 3.51213 7.83733C3.7412 7.94467 3.99312 8.00275 4.24938 8.00731C4.32843 8.0087 4.40508 8.03288 4.46884 8.07652C4.53259 8.12017 4.58033 8.18116 4.60552 8.25112C4.63071 8.32109 4.6321 8.39661 4.60952 8.46735C4.58694 8.53809 4.54149 8.60058 4.47938 8.64625C3.94642 9.03776 3.32706 9.314 2.66596 9.45507C3.21329 9.61863 3.78458 9.70155 4.35927 9.70082H4.36387C5.09988 9.70807 5.83006 9.57831 6.51174 9.31911C7.19342 9.05991 7.81293 8.67647 8.33409 8.1912C8.85524 7.70594 9.26759 7.12857 9.54702 6.49283C9.82646 5.8571 9.96739 5.17575 9.96158 4.48858V4.23329C9.9615 4.14639 9.99529 4.06244 10.0566 3.99709C10.0924 3.95939 10.1538 3.87254 10.2406 3.72987C10.3224 3.5953 10.4134 3.43306 10.508 3.26175L10.5248 3.23026C10.2578 3.28635 9.98292 3.30198 9.71062 3.27655C9.61854 3.26718 9.53321 3.22701 9.4704 3.16346C9.21336 2.90324 8.87108 2.73003 8.49724 2.67101C8.30869 2.6461 8.11706 2.65013 7.9299 2.68293C7.74748 2.70945 7.57036 2.7614 7.40448 2.83706C7.07004 3.00389 6.80437 3.26964 6.64916 3.59263C6.49394 3.91562 6.45795 4.27757 6.54683 4.62172C6.56082 4.67583 6.5611 4.73225 6.54764 4.78648C6.53417 4.84071 6.50735 4.89127 6.46928 4.93412C6.43122 4.97697 6.38298 5.01095 6.32839 5.03334C6.2738 5.05573 6.21436 5.06592 6.15481 5.06311C4.58446 4.98895 3.09982 4.37203 1.98975 3.33238C1.96819 3.43566 1.9574 3.54066 1.95755 3.64588V3.64684C1.95698 3.90964 2.02602 4.1685 2.15854 4.40037C2.29105 4.63223 2.48292 4.8299 2.71707 4.97578C2.78582 5.01899 2.83773 5.08184 2.86501 5.15491C2.89228 5.22797 2.89346 5.30733 2.86836 5.38107C2.84326 5.45482 2.79323 5.51898 2.72578 5.56395C2.65833 5.60891 2.57708 5.63225 2.49422 5.63048C2.33997 5.62648 2.18647 5.60939 2.03575 5.57846Z" fill="#808080"/>
</g>
<defs>
<clipPath id="clip0_696_168">
<rect width="12.2667" height="11.4523" fill="white" transform="translate(0.12207 0.381104)"/>
</clipPath>
</defs>
</svg>
