<svg width="14" height="14" viewBox="0 0 14 14" fill="none" xmlns="http://www.w3.org/2000/svg">
<g clip-path="url(#clip0_696_170)">
<path d="M7.07536 2.90887C7.55607 2.90887 8.04914 2.92042 8.52703 2.93932L9.0915 2.96451L9.6318 2.99443L10.1378 3.02645L10.5999 3.06005C11.1015 3.09588 11.5734 3.2957 11.9327 3.62433C12.292 3.95297 12.5157 4.38937 12.5644 4.85677L12.5868 5.07985L12.629 5.55751C12.6684 6.05249 12.6976 6.59208 12.6976 7.10806C12.6976 7.62403 12.6684 8.16363 12.629 8.65861L12.5868 9.13627C12.5795 9.2129 12.5722 9.28691 12.5644 9.35935C12.5157 9.82683 12.2919 10.2633 11.9325 10.5919C11.5731 10.9206 11.101 11.1204 10.5994 11.1561L10.1384 11.1891L9.63236 11.2217L9.0915 11.2516L8.52703 11.2768C8.04342 11.2964 7.55943 11.3066 7.07536 11.3072C6.5913 11.3066 6.10731 11.2964 5.6237 11.2768L5.05923 11.2516L4.51893 11.2217L4.01293 11.1891L3.55078 11.1561C3.04925 11.1202 2.57732 10.9204 2.21802 10.5918C1.85871 10.2632 1.63505 9.82675 1.58637 9.35935L1.56388 9.13627L1.52172 8.65861C1.47873 8.14271 1.45585 7.62551 1.45312 7.10806C1.45312 6.59208 1.48236 6.05249 1.52172 5.55751L1.56388 5.07985C1.57119 5.00322 1.5785 4.92921 1.58637 4.85677C1.63503 4.38945 1.85861 3.95311 2.2178 3.62449C2.57699 3.29587 3.04879 3.096 3.55022 3.06005L4.01181 3.02645L4.51781 2.99443L5.05867 2.96451L5.62314 2.93932C6.10693 2.9197 6.59112 2.90955 7.07536 2.90887ZM7.07536 3.95867C6.61153 3.95867 6.1342 3.97022 5.6698 3.98807L5.11995 4.01274L4.59202 4.0416L4.09614 4.0731L3.64186 4.10617C3.4031 4.12198 3.17805 4.21621 3.0066 4.37215C2.83515 4.52808 2.72837 4.73566 2.7052 4.95808C2.63942 5.59268 2.57757 6.38265 2.57757 7.10806C2.57757 7.83347 2.63942 8.62344 2.7052 9.25804C2.75299 9.71575 3.14205 10.0716 3.64186 10.11L4.09614 10.1425L4.59202 10.174L5.11995 10.2034L5.6698 10.2281C6.1342 10.2459 6.61153 10.2574 7.07536 10.2574C7.5392 10.2574 8.01653 10.2459 8.48092 10.2281L9.03078 10.2034L9.55871 10.1745L10.0546 10.143L10.5089 10.11C10.7476 10.0941 10.9727 9.99991 11.1441 9.84397C11.3156 9.68803 11.4224 9.48046 11.4455 9.25804C11.5113 8.62344 11.5732 7.83347 11.5732 7.10806C11.5732 6.38265 11.5113 5.59268 11.4455 4.95808C11.4224 4.73566 11.3156 4.52808 11.1441 4.37215C10.9727 4.21621 10.7476 4.12198 10.5089 4.10617L10.0546 4.07362L9.55871 4.04213L9.03078 4.01274L8.48092 3.98807C8.01267 3.96926 7.54405 3.95946 7.07536 3.95867ZM5.95092 5.83518C5.95088 5.78388 5.96427 5.73335 5.98992 5.68798C6.01556 5.64261 6.0527 5.60377 6.09808 5.57485C6.14347 5.54593 6.19573 5.5278 6.25033 5.52203C6.30494 5.51626 6.36022 5.52304 6.41138 5.54176L6.45692 5.56276L8.81826 6.83511C8.86528 6.86044 8.90506 6.89599 8.93422 6.93875C8.96338 6.9815 8.98105 7.03019 8.98574 7.08068C8.99043 7.13118 8.982 7.18198 8.96116 7.22879C8.94032 7.27559 8.9077 7.317 8.86605 7.34951L8.81826 7.38101L6.45692 8.65388C6.40933 8.67961 6.35573 8.69409 6.30079 8.69605C6.24584 8.69802 6.19121 8.68741 6.14166 8.66516C6.0921 8.64291 6.04913 8.60968 6.01647 8.56838C5.98381 8.52707 5.96247 8.47894 5.95429 8.42818L5.95092 8.38094V5.83518Z" fill="#808080"/>
</g>
<defs>
<clipPath id="clip0_696_170">
<rect width="13.4934" height="12.5976" fill="white" transform="translate(0.331055 0.808594)"/>
</clipPath>
</defs>
</svg>
